<?xml version="1.0" encoding="UTF-8" standalone="no"?>
<!-- Created with Inkscape (http://www.inkscape.org/) -->

<svg
   xmlns:dc="http://purl.org/dc/elements/1.1/"
   xmlns:cc="http://creativecommons.org/ns#"
   xmlns:rdf="http://www.w3.org/1999/02/22-rdf-syntax-ns#"
   xmlns:svg="http://www.w3.org/2000/svg"
   xmlns="http://www.w3.org/2000/svg"
   xmlns:xlink="http://www.w3.org/1999/xlink"
   version="1.1"
   width="661.09003"
   height="200"
   viewBox="0 0 528.87205 159.99999"
   id="svg2"
   style="fill-rule:evenodd">
  <metadata
     id="metadata286">
    <rdf:RDF>
      <cc:Work
         rdf:about="">
        <dc:format>image/svg+xml</dc:format>
        <dc:type
           rdf:resource="http://purl.org/dc/dcmitype/StillImage" />
        <dc:title></dc:title>
      </cc:Work>
    </rdf:RDF>
  </metadata>
  <defs
     id="defs4">
    <linearGradient
       id="linearGradient3846">
      <stop
         id="stop3848"
         style="stop-color:#000080;stop-opacity:1"
         offset="0" />
      <stop
         id="stop3850"
         style="stop-color:#000080;stop-opacity:0"
         offset="1" />
    </linearGradient>
    <linearGradient
       x1="-305.85117"
       y1="211.8997"
       x2="-314.67987"
       y2="387.21234"
       id="linearGradient3852"
       xlink:href="#linearGradient3846"
       gradientUnits="userSpaceOnUse"
       gradientTransform="matrix(0.98246843,0,0,0.98246843,362.94553,-262.21504)" />
  </defs>
  <g
     transform="translate(-471.70447,-666.7535)"
     id="g164" />
  <g
     transform="translate(0,-681.88843)"
     id="g282" />
  <path
     d="m 39.894917,6.902557 98.774023,0 -0.0967,77.726761 c -1.34129,10.812183 -6.63758,18.259032 -14.81863,25.602362 -10.36009,8.71879 -22.71726,15.15214 -34.582279,21.83378 l -6.290097,-3.6627 C 64.05075,117.49484 40.860909,105.94797 39.894907,82.2649 l 0,-75.362343 z"
     id="path188"
     style="fill:#ffffff;stroke:none" />
  <path
     d="m 45.812884,37.108106 86.938076,0 -0.0834,47.085664 c -2.44439,19.69729 -23.65737,29.91299 -39.695982,39.21152 l -3.751565,2.11255 -3.227183,-1.88221 C 69.353368,113.99787 46.66832,103.14501 45.812875,82.156612 l 0,-45.048506 z"
     id="path190"
     style="fill:url(#linearGradient3852);fill-opacity:1;stroke:none" />
  <path
     d="M 88.32855,126.81491 C 75.36486,119.30645 58.103093,111.85303 50.982191,98.65069 57.039158,94.491434 65.145024,87.926463 72.750508,82.208064 c 5.279238,-3.969015 10.693681,-6.84974 16.128961,-6.777942 6.942741,0.09216 10.496556,3.503542 17.927671,9.297315 l 19.78892,15.503333 c 0.23692,8.54588 -28.568906,23.86374 -38.26751,26.58414 z"
     id="path192"
     style="fill:#000066;fill-opacity:1;stroke:none" />
  <path
     d="M 51.291767,98.49574 69.644631,82.994805 c 5.453616,-4.774295 10.856043,-9.763368 18.445101,-10.033193 0.03095,-6e-4 0.0619,0 0.09353,-6e-4 l 0,3.705164 c -0.09039,0 -0.180067,-0.002 -0.270405,-6e-4 -6.63569,0.07958 -9.430095,2.871756 -16.532677,7.907506 L 51.291787,98.49574 z"
     id="path194"
     style="fill:#ffffff;stroke:none" />
  <path
     d="M 126.48803,100.04051 106.69911,82.994805 C 101.24612,78.22051 95.843697,73.231437 88.254629,72.961612 c -0.03095,-6e-4 -0.06258,0 -0.09353,-6e-4 l 0,3.705164 c 0.09039,0 0.179429,-0.002 0.270405,-6e-4 6.63569,0.07958 9.429467,2.871756 16.532046,7.907506 L 126.488,100.04051 z"
     id="path196"
     style="fill:#ffffff;stroke:none" />
  <path
     d="m 45.812884,37.108106 86.938076,0 -0.0834,47.085664 c -2.44439,19.69729 -23.65737,29.91299 -39.695982,39.21152 l -3.751565,2.11255 -3.227183,-1.88221 C 69.353368,113.99787 46.66832,103.14501 45.812875,82.156612 l 0,-45.048506 z"
     id="path198"
     style="fill:none;stroke:#ffffff;stroke-width:1.21719182" />
  <path
     d="m 19.583502,132.33947 10.591324,-13.52002 c 10.367675,10.87739 32.980689,18.45167 59.107102,18.45167 26.127032,0 48.739422,-7.57487 59.106462,-18.45227 l 10.59195,13.51942 c -11.0083,13.53558 -38.12472,23.14939 -69.698412,23.14939 -31.57307,0 -58.690751,-9.61381 -69.698426,-23.14819 z"
     id="path200"
     style="fill:#ffffff;stroke:none" />
  <path
     d="m 42.264759,118.92235 -8.397757,13.53319 -23.836796,-18.76937 11.412657,-1.14811 -2.200523,-11.49782 c 1.047508,0.50854 23.045163,17.8504 23.022419,17.88211 z"
     id="path202"
     style="fill:#ffffff;stroke:none" />
  <path
     d="m 136.29909,118.92235 8.39775,13.53319 23.8368,-18.76937 -11.41329,-1.14811 2.20117,-11.49782 c -1.04815,0.50854 -23.04581,17.8504 -23.02243,17.88211 z"
     id="path206"
     style="fill:#ffffff;stroke:none" />
  <path
     d="m 52.684868,16.003044 c 0.439095,0.03232 0.809947,0.05148 1.116998,0.06465 0.306422,0.01258 0.571777,0.01916 0.799847,0.01916 0.211024,0 0.463106,-0.0069 0.752463,-0.01916 0.289356,-0.01317 0.677913,-0.03527 1.171338,-0.07418 -0.09157,0.957848 -0.159838,1.947409 -0.204697,2.969285 -0.04362,1.025451 -0.06445,2.183133 -0.06445,3.473035 0,2.147244 0.231862,3.559189 0.698122,4.233457 0.46626,0.673669 1.276845,1.0087 2.434292,1.0087 0.650737,0 1.225668,-0.119055 1.729832,-0.354779 0.500381,-0.235124 0.895254,-0.573152 1.181447,-1.015283 0.252092,-0.383506 0.432149,-0.883671 0.538285,-1.502892 0.105517,-0.615634 0.159848,-1.572892 0.159848,-2.869367 0,-1.102635 -0.02083,-2.147244 -0.05816,-3.136806 -0.04107,-0.987165 -0.101725,-1.925275 -0.180067,-2.80535 0.326641,0.03891 0.578723,0.06101 0.75878,0.07418 0.176903,0.01258 0.323477,0.01916 0.439733,0.01916 0.118771,0 0.258399,-0.0069 0.422029,-0.01916 0.16364,-0.01317 0.39171,-0.03232 0.68423,-0.06465 -0.06131,0.838203 -0.105507,1.608792 -0.135836,2.315363 -0.03095,0.702986 -0.0449,1.331176 -0.0449,1.879207 l 0,2.860398 c 0,1.312037 -0.09157,2.305185 -0.278619,2.985437 -0.187641,0.680241 -0.497217,1.257589 -0.926831,1.728437 -0.527546,0.567169 -1.191557,0.992558 -1.991405,1.273151 -0.800475,0.281192 -1.746897,0.419396 -2.836101,0.419396 -1.198503,0 -2.227059,-0.154955 -3.088193,-0.467262 -0.861762,-0.312906 -1.521981,-0.764606 -1.978131,-1.357506 -0.333588,-0.431962 -0.568614,-0.993148 -0.708232,-1.679982 -0.140258,-0.686824 -0.211654,-1.776303 -0.211654,-3.269615 l 0,-1.682978 0,-0.677255 c 0,-0.863924 -0.01326,-1.6375 -0.04362,-2.321337 -0.03095,-0.680252 -0.07516,-1.350924 -0.136465,-2.005454 z m 22.259849,13.206517 c 0.08528,-0.692807 0.149738,-1.431692 0.193959,-2.214847 0.0449,-0.783155 0.06504,-1.799037 0.06504,-3.047057 l 0,-1.334772 0,-0.812472 c 0,-1.422113 -0.02024,-2.560057 -0.06504,-3.411415 -0.04421,-0.854345 -0.111825,-1.653652 -0.204069,-2.395523 1.355188,0.04549 2.2915,0.07064 2.808937,0.08076 0.514282,0.0098 0.909146,0.01258 1.181447,0.01258 0.477008,0 1.055722,-0.0069 1.729842,-0.01916 0.674121,-0.01317 1.528927,-0.03527 2.567593,-0.07418 -0.01385,0.183672 -0.02397,0.345209 -0.03478,0.489996 -0.01012,0.145385 -0.01326,0.271024 -0.01326,0.377513 0,0.109487 0.0029,0.232138 0.01326,0.370342 0.01071,0.138803 0.02397,0.296745 0.0449,0.481016 -0.531339,-0.04549 -1.065831,-0.07781 -1.600324,-0.100506 -0.535121,-0.02211 -1.079732,-0.03232 -1.63128,-0.03232 -0.363917,0 -0.636217,0 -0.809957,0.0039 -0.177532,0.0029 -0.344326,0.01258 -0.494054,0.02574 -0.02721,0.383497 -0.04736,0.780159 -0.06131,1.189986 -0.01326,0.409227 -0.02024,0.957258 -0.02024,1.641095 l 0,1.021866 c 0.558504,-0.01258 1.211777,-0.03232 1.954758,-0.06101 0.744879,-0.02928 1.582629,-0.0616 2.515788,-0.09992 -0.0069,0.06759 -0.01709,0.170517 -0.03036,0.302738 -0.03478,0.309311 -0.04804,0.509734 -0.04804,0.603069 0,0.07722 0.01012,0.241707 0.03723,0.492983 0.02083,0.164524 0.03409,0.296744 0.04107,0.397261 -0.830805,-0.05207 -1.617379,-0.09098 -2.359732,-0.119655 -0.742354,-0.02869 -1.446803,-0.0449 -2.110814,-0.05148 l 0,3.611239 c 0,0.5223 0.01326,0.996145 0.04421,1.422123 0.03036,0.42478 0.07516,0.84118 0.136465,1.250407 -0.418876,-0.01916 -0.796694,-0.03173 -1.134064,-0.04185 -0.333587,-0.0098 -0.615997,-0.01611 -0.840914,-0.01611 -0.235026,0 -0.507327,0.0069 -0.823859,0.01611 -0.316522,0.01022 -0.667793,0.02269 -1.052557,0.04185 z M 103.36136,19.130879 c -0.27925,-0.680251 -0.71898,-1.196568 -1.31791,-1.544774 -0.59957,-0.351193 -1.34508,-0.525296 -2.233381,-0.525296 -1.410156,0 -2.516416,0.457692 -3.316902,1.370071 -0.799837,0.912389 -1.201657,2.173564 -1.201657,3.778761 0,1.915106 0.394864,3.366546 1.188394,4.356107 0.789738,0.990162 1.947174,1.483145 3.469155,1.483145 0.871871,0 1.638241,-0.135217 2.298451,-0.406231 0.66085,-0.270425 1.1884,-0.667087 1.58011,-1.183413 l 0.30957,0.142399 c -0.0986,0.35418 -0.19079,0.692807 -0.26913,1.015283 -0.0815,0.325462 -0.14595,0.641954 -0.20028,0.951275 -0.60336,0.30991 -1.27053,0.538451 -1.99203,0.68982 -0.7253,0.151959 -1.52198,0.226145 -2.383746,0.226145 -2.414072,0 -4.293014,-0.606055 -5.641255,-1.821772 -1.345078,-1.215716 -2.019199,-2.921419 -2.019199,-5.114131 0,-2.095782 0.708232,-3.756026 2.124077,-4.981311 1.417103,-1.225286 3.344067,-1.837924 5.785295,-1.837924 0.844708,0 1.661608,0.08371 2.448198,0.254872 0.78973,0.170508 1.57251,0.431962 2.34899,0.783155 -0.14658,0.409817 -0.27547,0.809476 -0.38476,1.199555 -0.10868,0.393076 -0.20407,0.780159 -0.28557,1.164264 l -0.30642,0 z m 22.4197,9.398431 c -1.12712,0.30932 -2.19295,0.538461 -3.20381,0.68982 -1.0115,0.151969 -1.98508,0.226155 -2.92456,0.226155 -2.28139,0 -4.07946,-0.612638 -5.3898,-1.837923 -1.31475,-1.225286 -1.97181,-2.889116 -1.97181,-4.99148 0,-2.108358 0.73224,-3.78834 2.19989,-5.039346 1.46701,-1.24802 3.44578,-1.873234 5.94135,-1.873234 0.99065,0 1.90675,0.09992 2.74766,0.302738 0.8409,0.200424 1.64075,0.509734 2.40016,0.925544 -0.1731,0.370931 -0.31968,0.754438 -0.44225,1.1511 -0.12635,0.396662 -0.22176,0.802893 -0.29631,1.218703 l -0.24892,0 c -0.45931,-0.760421 -1.02097,-1.331785 -1.68498,-1.708699 -0.6678,-0.377514 -1.43669,-0.56717 -2.31551,-0.56717 -1.38552,0 -2.49557,0.509135 -3.33712,1.525017 -0.84028,1.01828 -1.26295,2.372799 -1.26295,4.065347 0,1.702716 0.39487,3.027908 1.1884,3.98217 0.78973,0.954262 1.88652,1.431692 3.2891,1.431692 0.3677,0 0.70128,-0.01975 1.00454,-0.05806 0.30263,-0.03586 0.59199,-0.09697 0.87187,-0.177689 l 0,-0.538451 c 0,-0.686834 -0.0177,-1.376655 -0.0512,-2.070061 -0.031,-0.692817 -0.0821,-1.389221 -0.15037,-2.08861 0.34749,0.02515 0.68107,0.04126 1.00139,0.05443 0.31653,0.01317 0.60904,0.01916 0.87819,0.01916 0.26598,0 0.55534,-0.0059 0.86808,-0.01916 0.31337,-0.01317 0.64064,-0.02928 0.98812,-0.05443 -0.0752,0.737686 -0.12636,1.337758 -0.15669,1.80502 -0.031,0.464266 -0.0449,0.861527 -0.0449,1.189985 0,0.238721 0.007,0.541449 0.0208,0.90281 0.0133,0.361362 0.0411,0.873493 0.0816,1.534596 z"
     id="path210"
     style="fill:#000066;fill-opacity:1;stroke:none" />
  <path
     d="m 141.9694,137.85565 c -0.15605,-0.26445 -0.33232,-0.54025 -0.52754,-0.82743 -0.19522,-0.28659 -0.46184,-0.64974 -0.79858,-1.08948 l -0.36013,-0.46965 -0.21985,-0.28837 c -0.38414,-0.50077 -0.69876,-0.89743 -0.94453,-1.187 -0.24703,-0.29076 -0.48774,-0.5564 -0.7215,-0.79571 0.50732,-0.30872 0.85607,-0.5241 1.0475,-0.64435 0.19017,-0.11907 0.29505,-0.19864 0.39803,-0.25846 0.0107,-0.007 0.008,9.8e-4 0.0202,0.0209 0.0221,0.0335 0.0587,0.1023 0.10803,0.18187 0.0733,0.11906 0.16238,0.27462 0.22934,0.36794 0.12068,0.1771 0.24324,0.3506 0.36707,0.51932 0.1232,0.16872 0.2483,0.33564 0.37403,0.49956 0.96473,1.25939 -0.53071,-0.694 1.2402,1.62015 0.15668,0.20462 0.29252,0.37633 0.40876,0.51633 0.11562,0.1388 0.22429,0.25906 0.32475,0.36375 6.3e-4,-0.004 0.46562,0.47264 0.44667,0.48701 -0.17817,0.1388 -0.66212,0.45888 -0.8466,0.58811 -0.18259,0.12803 -0.36581,0.26085 -0.54587,0.39547 z m -4.897,-2.45476 c -0.26093,-0.20402 -0.54713,-0.31351 -0.85987,-0.32846 -0.314,-0.0155 -0.64569,0.0647 -0.99506,0.23991 -0.55534,0.27761 -0.88957,0.66948 -1.00265,1.17503 -0.11309,0.50495 0.008,1.06435 0.36201,1.67579 0.4233,0.7293 0.89904,1.20435 1.42975,1.42512 0.53007,0.22136 1.09488,0.18067 1.69319,-0.11907 0.34306,-0.1711 0.61536,-0.37393 0.81501,-0.60725 0.20028,-0.23334 0.32031,-0.4882 0.36011,-0.76162 l 0.15353,-0.007 c 0.0398,0.15377 0.0783,0.30094 0.11877,0.43974 0.0398,0.14001 0.084,0.27282 0.13142,0.40145 -0.16932,0.23692 -0.38097,0.4553 -0.63179,0.65512 -0.25208,0.20102 -0.54902,0.3859 -0.8883,0.55581 -0.95021,0.47504 -1.82334,0.61444 -2.62256,0.417 -0.79795,-0.19803 -1.44047,-0.71495 -1.92506,-1.54956 -0.4631,-0.7987 -0.55155,-1.57048 -0.26472,-2.31595 0.28684,-0.74546 0.90978,-1.35811 1.87074,-1.83912 0.33232,-0.16632 0.67222,-0.29556 1.0197,-0.3847 0.34875,-0.091 0.71456,-0.14598 1.09742,-0.16512 0.0335,0.18486 0.0707,0.36255 0.11372,0.53307 0.0442,0.1711 0.0922,0.33743 0.14469,0.49896 l -0.12005,0.0604 z m -11.31788,2.90825 c 0.18701,-0.0568 0.3437,-0.10709 0.47321,-0.15077 0.12888,-0.0436 0.23945,-0.0831 0.33358,-0.11905 0.0872,-0.0329 0.19017,-0.0754 0.30768,-0.12684 0.11689,-0.0509 0.27357,-0.12085 0.47132,-0.21479 0.13078,0.39846 0.27736,0.80529 0.43847,1.2217 0.163,0.4176 0.35821,0.88426 0.58567,1.40118 0.37906,0.85974 0.72339,1.38862 1.0355,1.58486 0.31147,0.19564 0.70571,0.20162 1.18334,0.0186 0.26914,-0.10291 0.48584,-0.24111 0.65264,-0.4152 0.16552,-0.17351 0.26914,-0.37154 0.30957,-0.5935 0.0361,-0.19325 0.0228,-0.42239 -0.0429,-0.68684 -0.065,-0.26384 -0.21165,-0.65572 -0.43973,-1.17443 -0.19458,-0.44213 -0.38728,-0.85734 -0.57682,-1.24742 -0.19143,-0.38888 -0.38223,-0.75444 -0.56987,-1.09485 0.14215,-0.0365 0.25018,-0.067 0.32727,-0.0904 0.0752,-0.0234 0.13709,-0.0436 0.18511,-0.0616 0.0486,-0.0192 0.10551,-0.0443 0.17122,-0.0748 0.065,-0.0311 0.15542,-0.0748 0.27103,-0.13461 0.12257,0.34581 0.24008,0.6617 0.35191,0.94888 0.1112,0.28658 0.21671,0.54025 0.31337,0.75982 l 0.50416,1.14511 c 0.23124,0.5259 0.36834,0.93811 0.4113,1.24025 0.0423,0.30213 0.0158,0.58212 -0.0783,0.83879 -0.11815,0.31051 -0.31716,0.58632 -0.59831,0.82503 -0.28177,0.23872 -0.64821,0.44453 -1.09868,0.61623 -0.49533,0.18966 -0.94769,0.29078 -1.35835,0.30154 -0.41129,0.0114 -0.76383,-0.0652 -1.05699,-0.23094 -0.21416,-0.12025 -0.41066,-0.30752 -0.58882,-0.56059 -0.1788,-0.25308 -0.40055,-0.67786 -0.66401,-1.27614 l -0.29631,-0.67367 -0.12004,-0.27161 c -0.15226,-0.34581 -0.29378,-0.65333 -0.42709,-0.92256 -0.13267,-0.26743 -0.26978,-0.52888 -0.41003,-0.78136 z m -2.24159,6.78634 c -0.0594,-0.29675 -0.13331,-0.61026 -0.22239,-0.93991 -0.0891,-0.32905 -0.21986,-0.75204 -0.39171,-1.26776 l -0.18322,-0.55102 -0.11183,-0.33564 c -0.19585,-0.58811 -0.36075,-1.05597 -0.49722,-1.40417 -0.13709,-0.3482 -0.27356,-0.66889 -0.41255,-0.96623 0.0973,-0.0227 0.22744,-0.0532 0.38981,-0.0922 0.21418,-0.0538 0.35191,-0.091 0.41129,-0.10828 0.14215,-0.0419 0.37908,-0.11846 0.71077,-0.23274 0.0588,-0.0198 0.10551,-0.0365 0.13773,-0.049 0.0626,0.2818 0.13204,0.55701 0.2047,0.82563 0.0739,0.26804 0.15985,0.55163 0.2584,0.84897 l 0.0638,0.19026 0.63179,1.89895 c 0.1093,0.32726 0.19017,0.55999 0.24198,0.69699 0.0518,0.13582 0.10045,0.25488 0.14721,0.35539 0.32726,-0.0964 0.64632,-0.19624 0.95463,-0.30214 0.30831,-0.10709 0.6122,-0.21897 0.91168,-0.33683 0.0177,0.0814 0.0348,0.15196 0.0512,0.21418 0.0158,0.0616 0.0328,0.11787 0.0493,0.16752 0.0101,0.0306 0.0411,0.10471 0.0954,0.22077 0.0259,0.0587 0.0468,0.1059 0.0626,0.14419 -0.64568,0.17051 -1.12585,0.30094 -1.44238,0.38768 -0.31715,0.0867 -0.56734,0.15676 -0.75182,0.2106 -0.2205,0.0647 -0.44036,0.13163 -0.6577,0.20283 -0.21797,0.0706 -0.4353,0.14418 -0.65137,0.22195 z m -10.53952,2.26689 0.17438,-0.37094 c 0.31147,-0.65212 0.51554,-1.08768 0.61283,-1.30964 l 0.59514,-1.34912 -2.55811,-2.59058 c 0.23692,-0.0317 0.4214,-0.0598 0.55471,-0.0813 0.13521,-0.0227 0.25146,-0.0437 0.35065,-0.0641 0.11624,-0.024 0.24892,-0.0544 0.39739,-0.0903 0.14973,-0.0389 0.33358,-0.0862 0.54966,-0.14657 0.12193,0.15794 0.23376,0.29674 0.33548,0.41998 0.0992,0.12265 0.17943,0.2118 0.23503,0.27043 l 0.80679,0.8735 c 0.13331,-0.32906 0.25651,-0.65812 0.36834,-0.98299 0.11119,-0.32606 0.21733,-0.6611 0.31652,-1.00631 0.1371,-0.0126 0.24766,-0.0251 0.33548,-0.0365 0.0871,-0.012 0.16048,-0.0246 0.22175,-0.0364 0.0638,-0.0138 0.13521,-0.0312 0.21735,-0.0533 0.0803,-0.0246 0.18764,-0.0562 0.32095,-0.0993 -0.14974,0.28777 -0.32917,0.6617 -0.53892,1.12058 -0.20976,0.45769 -0.45299,1.00751 -0.72972,1.64648 l 2.67879,2.80415 c -0.24324,0.0365 -0.44415,0.067 -0.60463,0.0933 -0.1592,0.0257 -0.29631,0.0515 -0.40939,0.0748 -0.0803,0.0168 -0.34117,0.0831 -0.78279,0.19863 l -0.0556,0.0155 c -0.1074,-0.14778 -0.2028,-0.277 -0.28493,-0.3847 -0.0827,-0.10889 -0.13711,-0.17769 -0.16553,-0.20461 l -1.04941,-1.1505 c -0.14594,0.35119 -0.28178,0.70717 -0.40498,1.06853 -0.12383,0.36018 -0.23945,0.73889 -0.34685,1.13555 -0.21986,0.0257 -0.36644,0.0449 -0.43846,0.055 -0.0739,0.0108 -0.13204,0.0215 -0.1769,0.0305 -0.0796,0.0167 -0.16364,0.0371 -0.25145,0.0616 -0.0872,0.0251 -0.1788,0.0544 -0.27357,0.0885 z m -7.63771,-4.48832 c 0.19522,-0.0167 0.36012,-0.0335 0.49596,-0.0496 0.13583,-0.0155 0.25335,-0.0311 0.3538,-0.0467 0.0928,-0.0143 0.20343,-0.0347 0.32979,-0.0598 0.12636,-0.0251 0.29568,-0.0622 0.51049,-0.11247 0.0304,0.41641 0.0727,0.84417 0.12825,1.28452 0.0569,0.44153 0.13269,0.9387 0.22745,1.49031 0.15795,0.91837 0.36391,1.50649 0.61916,1.76315 0.2546,0.25546 0.63684,0.34341 1.14606,0.26384 0.2862,-0.0449 0.53071,-0.13521 0.73477,-0.27042 0.20343,-0.13521 0.35254,-0.30751 0.44605,-0.51632 0.0827,-0.18128 0.12509,-0.40743 0.12572,-0.67965 9.8e-4,-0.27102 -0.0449,-0.68444 -0.14026,-1.23845 -0.0814,-0.47145 -0.16742,-0.91776 -0.2565,-1.33776 -0.091,-0.42 -0.18701,-0.81666 -0.2862,-1.18819 0.14657,-0.006 0.25903,-0.0132 0.3399,-0.0203 0.0783,-0.007 0.14341,-0.0144 0.19459,-0.0221 0.0525,-0.009 0.11372,-0.0203 0.18449,-0.0371 0.0707,-0.0167 0.16995,-0.0407 0.2963,-0.0748 0.0348,0.36256 0.072,0.6952 0.11057,0.99974 0.0385,0.30273 0.079,0.57255 0.11941,0.80708 l 0.21038,1.22348 c 0.0967,0.5612 0.12888,0.99256 0.0967,1.29649 -0.0322,0.30392 -0.12637,0.57196 -0.28052,0.80349 -0.19017,0.2788 -0.4511,0.50675 -0.78279,0.68145 -0.33169,0.17529 -0.73856,0.29914 -1.21809,0.37453 -0.52755,0.0825 -0.99191,0.0867 -1.39373,0.0126 -0.40245,-0.0748 -0.72656,-0.22197 -0.97106,-0.44453 -0.1788,-0.16213 -0.32347,-0.38589 -0.43531,-0.67008 -0.11182,-0.28418 -0.22365,-0.74546 -0.33358,-1.38382 l -0.12383,-0.72034 -0.0505,-0.28956 c -0.0632,-0.36975 -0.12636,-0.7 -0.19017,-0.99016 -0.0632,-0.28898 -0.13267,-0.57257 -0.20723,-0.84838 z m -3.88109,6.22274 c 0.004,-0.30272 -0.004,-0.624 -0.0234,-0.96383 -0.0183,-0.33982 -0.0594,-0.77837 -0.12067,-1.31622 l -0.0657,-0.57435 -0.0398,-0.35001 c -0.0701,-0.61263 -0.1352,-1.10263 -0.19712,-1.46818 -0.0613,-0.36675 -0.12889,-0.70657 -0.20344,-1.02366 0.0998,-0.005 0.23376,-0.0126 0.40056,-0.0215 0.22113,-0.0155 0.36328,-0.0281 0.4252,-0.0347 0.14847,-0.0155 0.39676,-0.0496 0.74488,-0.1035 0.0613,-0.01 0.11055,-0.018 0.1453,-0.0246 0.003,0.28837 0.0133,0.57135 0.0297,0.84776 0.0164,0.27701 0.0423,0.57136 0.077,0.88127 l 0.0228,0.19864 0.22619,1.97911 c 0.0392,0.34163 0.0701,0.58453 0.0923,0.72812 0.0227,0.14299 0.0461,0.26803 0.0707,0.37513 0.34053,-0.0365 0.67348,-0.079 0.9976,-0.12924 0.32473,-0.0509 0.64505,-0.10709 0.96284,-0.1705 6.3e-4,0.0825 0.003,0.15555 0.006,0.22016 0.003,0.0629 0.008,0.12145 0.0138,0.1729 0.003,0.0323 0.0184,0.11069 0.0474,0.23334 0.0133,0.0622 0.024,0.11367 0.0316,0.15316 -0.6678,0.0544 -1.16565,0.0981 -1.49354,0.12803 -0.3279,0.03 -0.58757,0.0544 -0.77963,0.0754 -0.22934,0.0246 -0.45869,0.0515 -0.68549,0.0825 -0.22871,0.0317 -0.45742,0.0664 -0.68487,0.1047 z m -10.183812,0.21659 c 0.0392,-0.18727 0.07644,-0.38411 0.113092,-0.58931 0.03851,-0.20641 0.08597,-0.47085 0.141514,-0.79573 l 0.154798,-0.004 c 0.08715,0.36137 0.244497,0.62761 0.471939,0.79811 0.226812,0.16992 0.531338,0.25009 0.914206,0.23992 0.348747,-0.01 0.622305,-0.0904 0.818161,-0.2423 0.195855,-0.15376 0.290623,-0.35778 0.286202,-0.61444 -0.0039,-0.18906 -0.07201,-0.34701 -0.205964,-0.47265 -0.134569,-0.12623 -0.465622,-0.29495 -0.995064,-0.50495 -0.705707,-0.28239 -1.171967,-0.54324 -1.401314,-0.78315 -0.228071,-0.24051 -0.345584,-0.54803 -0.353168,-0.92495 -0.01012,-0.55102 0.190805,-0.99196 0.605259,-1.31862 0.412558,-0.32905 0.984954,-0.50256 1.717836,-0.5217 0.313997,-0.008 0.605879,0.0138 0.876922,0.064 0.271672,0.0496 0.525012,0.13163 0.761305,0.2453 -0.07457,0.18248 -0.139628,0.36495 -0.194587,0.54804 -0.0562,0.18367 -0.105518,0.36973 -0.14911,0.55998 l -0.107403,0.002 c -0.137094,-0.30693 -0.308309,-0.53008 -0.515541,-0.66769 -0.205964,-0.1388 -0.465631,-0.20342 -0.776464,-0.19504 -0.30768,0.009 -0.553454,0.0831 -0.737932,0.22376 -0.183849,0.14239 -0.274826,0.32248 -0.271043,0.54025 0.0059,0.29256 0.370862,0.58093 1.097427,0.86392 0.125726,0.0484 0.221753,0.0873 0.290624,0.11547 0.693072,0.28538 1.141638,0.54504 1.345077,0.77896 0.202802,0.23393 0.30768,0.53905 0.314626,0.91658 0.0114,0.5941 -0.210386,1.06733 -0.664011,1.41673 -0.454883,0.3494 -1.090461,0.53546 -1.908632,0.55641 -0.303258,0.009 -0.591986,-0.008 -0.869347,-0.0484 -0.275454,-0.0401 -0.528175,-0.1035 -0.759408,-0.18666 z m -5.194576,0.22734 c 0.03792,-0.30094 0.06632,-0.62162 0.08597,-0.96204 0.02024,-0.33983 0.02908,-0.78076 0.02908,-1.32221 l 0,-0.57793 0,-0.35359 c 0,-0.61743 -0.0088,-1.11102 -0.02908,-1.48015 -0.01955,-0.37034 -0.04991,-0.71675 -0.09098,-1.03803 0.604621,0.0126 1.0216,0.0198 1.252205,0.0215 0.229338,0.002 0.404974,0.002 0.526279,0 0.212911,-0.002 0.470681,-0.007 0.771415,-0.0161 0.300105,-0.009 0.681067,-0.0227 1.144173,-0.0436 0,0.0221 -0.0029,0.0556 -0.0088,0.10171 -0.01513,0.13462 -0.02338,0.22615 -0.02338,0.27461 0,0.0509 0.0079,0.13581 0.02338,0.25846 0.0049,0.049 0.0079,0.0856 0.0088,0.11068 -0.236294,-0.0174 -0.473216,-0.0287 -0.711396,-0.0359 -0.238818,-0.007 -0.480162,-0.01 -0.725926,-0.007 -0.165526,0.002 -0.288099,0.003 -0.36707,0.005 -0.08027,0.002 -0.15353,0.005 -0.217332,0.009 -0.01199,0.20999 -0.02083,0.4182 -0.02525,0.62281 -0.0049,0.20401 -0.0059,0.40803 -0.0059,0.60966 l 0,0.44332 c 0.248928,-0.008 0.540181,-0.0191 0.871243,-0.0353 0.33232,-0.0155 0.705707,-0.0347 1.121429,-0.0587 -0.01199,0.0772 -0.02152,0.14957 -0.02722,0.21718 -0.0039,0.0682 -0.0079,0.12863 -0.0079,0.18068 0,0.0335 0.0049,0.1047 0.01641,0.21359 0.0098,0.0712 0.01513,0.12862 0.01827,0.1723 -0.341172,-0.0191 -0.676656,-0.0329 -1.008976,-0.0418 -0.33232,-0.009 -0.660218,-0.0132 -0.983696,-0.0126 l 0,0.91537 c 0,0.25128 0.0029,0.46547 0.01071,0.64196 0.0079,0.1759 0.02083,0.33265 0.03792,0.47264 0.338637,-0.004 0.669061,-0.0143 0.995702,-0.0329 0.326003,-0.0192 0.652634,-0.0449 0.981801,-0.0772 -0.0079,0.0544 -0.01513,0.11068 -0.01837,0.16812 -0.0049,0.0575 -0.0059,0.13282 -0.0059,0.22555 0,0.0347 9.82e-4,0.0862 0.0069,0.15496 0.0059,0.0682 0.01071,0.14837 0.0171,0.23752 -0.6697,-0.0102 -1.168813,-0.0149 -1.497979,-0.0167 -0.329157,-0.002 -0.588823,-0.002 -0.781525,0 -0.231862,0.002 -0.4612,0.007 -0.692434,0.0167 -0.228708,0.009 -0.459313,0.0215 -0.689918,0.0377 z m -7.518301,-0.23034 c 0.05875,-0.4164 0.108671,-0.84477 0.150367,-1.28332 0.04166,-0.43794 0.07899,-0.96203 0.113721,-1.57168 0.02152,-0.37991 0.03792,-0.81069 0.0505,-1.2923 0.01385,-0.48222 0.02211,-1.0093 0.02839,-1.57767 0.156046,0.0198 0.279247,0.0329 0.368328,0.0424 0.09098,0.009 0.166793,0.0144 0.228708,0.0161 0.06828,0.003 0.145946,0.003 0.233759,0.002 0.08656,-0.002 0.206603,-0.007 0.357599,-0.0155 0.514912,0.67486 1.043715,1.33357 1.588946,1.97493 0.545241,0.64196 1.108166,1.26776 1.686879,1.8798 l 0.0897,-1.57647 c 0.02525,-0.45051 0.04293,-0.8364 0.0505,-1.16127 0.0079,-0.32487 0.0114,-0.65392 0.0098,-0.98717 0.105507,0.0167 0.197122,0.0281 0.272929,0.0371 0.07644,0.01 0.141525,0.0149 0.194598,0.0174 0.04991,0.002 0.13394,5.9e-4 0.249557,-0.005 0.115617,-0.006 0.202172,-0.0108 0.259028,-0.0126 -0.0619,0.30572 -0.117513,0.71973 -0.166794,1.24084 -0.04932,0.51931 -0.101715,1.2899 -0.159838,2.30937 l -0.0227,0.40146 c -0.02338,0.4146 -0.03723,0.75742 -0.03979,1.02665 -0.0029,0.26982 -9.82e-4,0.51811 0.01071,0.74545 -0.144678,-0.0221 -0.254616,-0.0365 -0.332959,-0.0449 -0.07899,-0.009 -0.147203,-0.0138 -0.205964,-0.0161 -0.06258,-0.002 -0.135198,-0.002 -0.216065,0 -0.08213,0.003 -0.192701,0.008 -0.331691,0.0197 -0.521229,-0.67128 -1.057617,-1.33179 -1.612958,-1.98511 -0.554711,-0.65093 -1.134701,-1.30247 -1.738684,-1.9516 l -0.132043,2.31775 c -0.0098,0.16512 -0.01769,0.37513 -0.02653,0.63238 -0.0088,0.25608 -0.01582,0.53965 -0.02269,0.85196 -0.108671,-0.018 -0.200276,-0.0311 -0.277361,-0.0413 -0.07644,-0.01 -0.143411,-0.0149 -0.20344,-0.0174 -0.03792,-9.8e-4 -0.0897,-6e-4 -0.155416,0.002 -0.06573,0.003 -0.164269,0.01 -0.298838,0.0209 z m -9.133157,-0.91597 c 0.201544,-0.62102 0.369605,-1.14751 0.502906,-1.57947 0.13394,-0.43256 0.253978,-0.83759 0.360124,-1.21452 l 0.786574,-2.81373 c 0.164898,0.0335 0.293149,0.0569 0.381601,0.0712 0.0897,0.0149 0.167422,0.0263 0.235026,0.0329 0.07388,0.008 0.160476,0.0138 0.261562,0.0186 0.100458,0.003 0.226813,0.006 0.379076,0.007 0.205326,0.76819 0.403077,1.47178 0.591357,2.11135 0.189538,0.63956 0.379705,1.24442 0.569243,1.81638 l 1.440478,-2.16219 c 0.18385,-0.27821 0.339276,-0.52829 0.468795,-0.75384 0.126984,-0.22496 0.240705,-0.44572 0.337998,-0.6617 0.156056,0.0335 0.281153,0.0562 0.375284,0.0718 0.09284,0.0149 0.173749,0.0258 0.241353,0.0329 0.07712,0.008 0.163001,0.0137 0.258399,0.018 0.09726,0.005 0.222391,0.008 0.378437,0.007 l -0.08272,2.83706 c -0.0029,0.0658 -0.0059,0.16692 -0.0088,0.30452 -0.0335,1.19359 -0.02653,2.06947 0.02152,2.62826 -0.209747,-0.0389 -0.375912,-0.0658 -0.499114,-0.0837 -0.121934,-0.018 -0.227441,-0.0317 -0.316522,-0.0407 -0.09919,-0.0108 -0.212281,-0.0191 -0.338637,-0.0263 -0.125097,-0.008 -0.290624,-0.0149 -0.496588,-0.0191 0.04991,-0.44573 0.08842,-1.00812 0.112453,-1.68537 9.82e-4,-0.0521 0.0029,-0.0897 0.0059,-0.11069 l 0.0449,-2.01142 c -0.40182,0.60067 -0.79353,1.19835 -1.170081,1.79545 -0.377811,0.59888 -0.74551,1.19597 -1.101841,1.79485 -0.05178,-0.0108 -0.102354,-0.0203 -0.1491,-0.0275 -0.04618,-0.008 -0.101725,-0.0155 -0.166165,-0.0215 -0.03665,-0.004 -0.10424,-0.008 -0.204697,-0.0126 -0.05305,-0.003 -0.09726,-0.005 -0.12889,-0.005 -0.183849,-0.6629 -0.379066,-1.31563 -0.59009,-1.96058 -0.209119,-0.64315 -0.434035,-1.28272 -0.67475,-1.9163 l -0.564182,2.25553 c -0.04048,0.19085 -0.08469,0.40683 -0.133311,0.64555 -0.04863,0.23931 -0.09795,0.49178 -0.148471,0.75862 -0.146574,-0.0323 -0.258399,-0.0538 -0.332958,-0.067 -0.07329,-0.0126 -0.134569,-0.0221 -0.180686,-0.0269 -0.04863,-0.005 -0.106146,-0.009 -0.176275,-0.01 -0.07015,-0.002 -0.166155,-0.002 -0.288728,0.003 z m -7.573888,-4.06174 c 0.199637,-0.94709 0.66464,-1.63213 1.394987,-2.05511 0.730976,-0.42299 1.647708,-0.54265 2.751442,-0.35598 1.065202,0.18009 1.836617,0.56239 2.31614,1.1499 0.480162,0.58512 0.625479,1.32341 0.438466,2.21245 -0.202801,0.96444 -0.666536,1.66383 -1.389309,2.0934 -0.723391,0.43076 -1.643286,0.55161 -2.757759,0.36316 -1.077198,-0.18188 -1.852405,-0.56657 -2.328774,-1.15289 -0.47637,-0.58752 -0.617895,-1.33837 -0.425193,-2.25493 z m 1.635063,0.20042 c -0.156684,0.74486 -0.118142,1.35272 0.114988,1.82656 0.233769,0.47384 0.633683,0.75862 1.201038,0.85435 0.555969,0.0939 1.039924,-0.0443 1.453749,-0.41162 0.413816,-0.36915 0.698123,-0.92136 0.85291,-1.65725 0.157952,-0.75024 0.120677,-1.36349 -0.111824,-1.84211 -0.23313,-0.47683 -0.6299,-0.76282 -1.191557,-0.85794 -0.564183,-0.0951 -1.052558,0.0418 -1.465755,0.41221 -0.412558,0.36975 -0.696865,0.92795 -0.853549,1.6758 z m -12.741928,-0.22257 c 0.768251,-0.81964 1.509337,-1.64108 2.220733,-2.46312 0.711395,-0.82324 1.399418,-1.65067 2.060265,-2.48229 0.0059,0.002 0.01326,0.004 0.02466,0.007 0.186384,0.0724 0.324117,0.12145 0.410672,0.14478 0.07143,0.0192 0.190167,0.043 0.357589,0.0724 0.04362,0.006 0.07516,0.0114 0.0954,0.0174 0.03851,1.07871 0.0954,2.13348 0.168061,3.16612 0.07202,1.03025 0.161734,2.05092 0.266612,3.05963 -0.181324,-0.0581 -0.342429,-0.10769 -0.480161,-0.14957 -0.139629,-0.0425 -0.257771,-0.0772 -0.353797,-0.10351 -0.127623,-0.0341 -0.263459,-0.0682 -0.408137,-0.1035 -0.143421,-0.0347 -0.299476,-0.0706 -0.467527,-0.10769 -0.0039,-0.15795 -0.0049,-0.42598 -0.0059,-0.8035 -0.002,-0.37811 -0.0049,-0.67007 -0.0079,-0.87588 -0.05246,-0.0168 -0.187642,-0.0592 -0.405612,-0.12565 -0.217332,-0.0664 -0.394864,-0.11786 -0.530071,-0.15435 -0.04293,-0.012 -0.16869,-0.043 -0.378437,-0.0927 -0.211653,-0.0496 -0.400562,-0.0957 -0.569242,-0.1382 -0.220496,0.29137 -0.567346,0.74008 -1.04183,1.34554 l -0.03095,0.0377 c -0.103611,-0.0365 -0.1889,-0.0658 -0.255874,-0.0879 -0.06828,-0.0227 -0.122563,-0.0407 -0.161734,-0.0515 -0.07074,-0.0192 -0.148471,-0.0377 -0.234398,-0.0562 -0.08528,-0.0186 -0.175636,-0.0377 -0.271662,-0.055 z m 2.479142,-1.72305 c 0.02024,0.006 0.05178,0.0155 0.09599,0.0306 0.275464,0.0838 0.473215,0.14179 0.591986,0.1741 0.135207,0.0371 0.357599,0.091 0.664011,0.16273 l 0.04677,0.0132 c -9.83e-4,-0.29795 -0.01071,-0.60307 -0.0335,-0.91836 -0.02083,-0.31411 -0.05374,-0.64077 -0.09983,-0.9794 -0.239447,0.26983 -0.466889,0.53187 -0.679171,0.78555 -0.211653,0.25427 -0.408137,0.49777 -0.586298,0.7317 z m -4.902056,-2.53493 0.03723,0.0132 c 0.464993,0.16871 0.839019,0.20879 1.121419,0.12144 0.284307,-0.0873 0.503545,-0.30991 0.65959,-0.66827 0.140896,-0.32308 0.154788,-0.58932 0.04048,-0.80171 -0.114988,-0.21059 -0.371491,-0.38769 -0.766993,-0.53128 -0.0029,-9.8e-4 -0.02653,-0.0108 -0.07015,-0.0299 -0.04549,-0.0198 -0.0897,-0.0371 -0.136465,-0.0538 -0.067,0.12384 -0.131415,0.24948 -0.192701,0.37811 -0.06131,0.13042 -0.135197,0.29556 -0.222382,0.49598 l -0.470052,1.07631 z m -2.707221,2.38894 c 0.18827,-0.33922 0.370862,-0.68682 0.549023,-1.04639 0.177532,-0.35777 0.377808,-0.79512 0.602096,-1.30904 l 0.118141,-0.27043 c 0.259667,-0.59589 0.470053,-1.09905 0.629262,-1.51186 0.157951,-0.41222 0.300104,-0.81307 0.427098,-1.20315 0.01827,0.01 0.04048,0.0174 0.06887,0.0275 0.255246,0.11368 0.442887,0.19205 0.561029,0.23512 0.164269,0.0592 0.44162,0.14897 0.82828,0.26804 0.387279,0.12025 0.686117,0.21837 0.897141,0.29495 0.65453,0.23692 1.084783,0.52111 1.291376,0.85375 0.206594,0.33324 0.205965,0.73889 -0.0029,1.21691 -0.162373,0.37094 -0.413197,0.63179 -0.751205,0.78255 -0.336742,0.14898 -0.716446,0.16752 -1.137846,0.0538 0.09039,0.58094 0.194587,1.1493 0.310833,1.70452 0.117513,0.5558 0.248299,1.10083 0.389814,1.6351 -0.241343,-0.10589 -0.429614,-0.18427 -0.566707,-0.23991 -0.135836,-0.055 -0.2483,-0.0993 -0.335484,-0.13042 -0.104878,-0.0383 -0.224916,-0.079 -0.36202,-0.12086 -0.134569,-0.0413 -0.29757,-0.0898 -0.487736,-0.14358 -0.0098,-0.32128 -0.05433,-0.74188 -0.137733,-1.26119 -0.08145,-0.51811 -0.202172,-1.12657 -0.359485,-1.82297 l -0.44605,1.02246 c -0.123192,0.28299 -0.232492,0.54804 -0.327261,0.79453 -0.0954,0.24769 -0.180695,0.48521 -0.254616,0.71495 -0.180686,-0.0838 -0.32726,-0.14718 -0.440352,-0.19385 -0.113092,-0.0467 -0.211654,-0.0862 -0.293149,-0.11546 -0.08341,-0.03 -0.183221,-0.0629 -0.302001,-0.10052 -0.118771,-0.0365 -0.274826,-0.0825 -0.468785,-0.13462 z m -2.581495,-4.12157 c 0.43657,0.19205 0.792891,0.24889 1.065202,0.16932 0.27293,-0.0796 0.508585,-0.30632 0.705707,-0.68145 0.159838,-0.30333 0.202172,-0.56657 0.129519,-0.78854 -0.0727,-0.22196 -0.260305,-0.39965 -0.561668,-0.53127 -0.02466,-0.0114 -0.06258,-0.0246 -0.115616,-0.0419 -0.05305,-0.0167 -0.117513,-0.0377 -0.193331,-0.0634 -0.03606,0.0604 -0.07015,0.12085 -0.102343,0.17829 -0.03095,0.0562 -0.06131,0.11307 -0.0897,0.16752 l -0.227441,0.43196 -0.610309,1.15947 z m -0.276722,0.54444 -0.542077,1.03084 c -0.04048,0.0772 -0.106146,0.22137 -0.199019,0.43256 -0.09098,0.21179 -0.193959,0.45828 -0.308308,0.73589 -0.181325,-0.0981 -0.329166,-0.17589 -0.446041,-0.23154 -0.115617,-0.0569 -0.219238,-0.10589 -0.309585,-0.14537 -0.08714,-0.0383 -0.193321,-0.0819 -0.318419,-0.12924 -0.124459,-0.0472 -0.281781,-0.1047 -0.47574,-0.1747 0.221134,-0.3464 0.439094,-0.70357 0.652644,-1.07033 0.211643,-0.36794 0.480162,-0.85853 0.803639,-1.47297 0.266613,-0.50674 0.50101,-0.97161 0.706336,-1.3958 0.202801,-0.42418 0.389185,-0.83879 0.558504,-1.24084 0.145307,0.0778 0.265984,0.14179 0.361381,0.19026 0.09727,0.0484 0.183221,0.0891 0.260934,0.12325 0.154149,0.0676 0.402449,0.16751 0.742982,0.29854 0.340533,0.13282 0.603363,0.23871 0.786574,0.31888 0.655798,0.28838 1.076569,0.61145 1.264211,0.97101 0.186384,0.35718 0.154159,0.77598 -0.09599,1.25162 -0.288728,0.54802 -0.69434,0.87588 -1.21999,0.98358 -0.523115,0.10769 -1.163754,-0.006 -1.91937,-0.33804 -0.08341,-0.0365 -0.145946,-0.064 -0.187642,-0.0837 -0.04176,-0.0197 -0.08086,-0.0383 -0.114988,-0.0538 z m -5.528792,-6.64693 c 0.156045,0.10828 0.289356,0.19743 0.400552,0.26922 0.111196,0.0718 0.209119,0.13282 0.294417,0.18308 0.07899,0.0467 0.175007,0.0993 0.286202,0.15855 0.111186,0.0587 0.262192,0.1352 0.456779,0.23034 -0.279247,0.33084 -0.558503,0.67845 -0.837122,1.0434 -0.279885,0.36615 -0.583773,0.78555 -0.914835,1.25879 -0.550919,0.78675 -0.825745,1.35571 -0.824478,1.70511 0.002,0.34939 0.2186,0.65033 0.651377,0.90521 0.24323,0.14298 0.489004,0.22554 0.737293,0.25067 0.24829,0.0234 0.482058,-0.0137 0.702554,-0.11247 0.192691,-0.085 0.387918,-0.22855 0.586298,-0.43256 0.197122,-0.20282 0.463106,-0.54145 0.794787,-1.01648 0.283049,-0.40445 0.543344,-0.79154 0.78342,-1.16307 0.236923,-0.37034 0.454893,-0.72752 0.651377,-1.06734 0.112463,0.0856 0.200915,0.14957 0.264726,0.19385 0.06258,0.0436 0.116246,0.0784 0.159209,0.1035 0.04421,0.0263 0.09856,0.055 0.163001,0.0862 0.06386,0.0311 0.154788,0.0736 0.272301,0.12684 -0.238189,0.29316 -0.452358,0.56657 -0.64443,0.81844 -0.192063,0.25069 -0.357589,0.47803 -0.498475,0.67906 l -0.732882,1.04879 c -0.336741,0.48102 -0.625469,0.82444 -0.869976,1.03264 -0.244497,0.2082 -0.507956,0.35179 -0.789099,0.42957 -0.343068,0.0916 -0.700028,0.1023 -1.070891,0.0287 -0.371491,-0.073 -0.760666,-0.23094 -1.168174,-0.47026 -0.447937,-0.26384 -0.792263,-0.54623 -1.034245,-0.85016 -0.241972,-0.30393 -0.373387,-0.61503 -0.39171,-0.93273 -0.01385,-0.23212 0.04176,-0.48938 0.165536,-0.77117 0.124459,-0.2824 0.376541,-0.69761 0.759409,-1.24504 l 0.43151,-0.61683 0.173749,-0.24829 c 0.221125,-0.31649 0.415084,-0.60307 0.578085,-0.86033 0.163001,-0.25666 0.318418,-0.51153 0.463735,-0.7652 z m -8.052164,1.49092 c 0.164269,-0.11607 0.334845,-0.24111 0.511119,-0.37213 0.1788,-0.13163 0.404345,-0.30094 0.681696,-0.51034 l 0.116884,0.0927 c -0.19838,0.32488 -0.276093,0.62162 -0.231862,0.88965 0.04293,0.26804 0.209118,0.51573 0.497846,0.74367 0.263459,0.2088 0.523754,0.31649 0.77837,0.32307 0.255236,0.006 0.473206,-0.0885 0.656427,-0.28537 0.134568,-0.14359 0.199009,-0.30394 0.190795,-0.48103 -0.0079,-0.17769 -0.128251,-0.50914 -0.365174,-0.99315 -0.313996,-0.64675 -0.468156,-1.13016 -0.462467,-1.45144 0.0069,-0.32128 0.143421,-0.6252 0.411929,-0.91298 0.392339,-0.41999 0.860495,-0.6264 1.402572,-0.61683 0.542077,0.009 1.089204,0.23154 1.642019,0.66948 0.236923,0.18726 0.435941,0.3835 0.598943,0.58872 0.163001,0.20521 0.290624,0.42238 0.3816,0.65332 -0.187013,0.0916 -0.36707,0.18846 -0.541448,0.29136 -0.17374,0.1035 -0.345583,0.21239 -0.515541,0.32786 l -0.08086,-0.0641 c 0.121934,-0.31469 0.158581,-0.5875 0.106136,-0.81904 -0.05119,-0.23094 -0.195855,-0.43914 -0.430242,-0.6252 -0.232501,-0.18369 -0.468156,-0.27941 -0.705707,-0.28719 -0.23819,-0.007 -0.435941,0.0724 -0.591358,0.23872 -0.207861,0.22256 -0.148471,0.66409 0.180686,1.3246 0.05689,0.11427 0.0992,0.20341 0.130157,0.26623 0.30262,0.64197 0.444145,1.11341 0.423926,1.41434 -0.02083,0.30035 -0.164898,0.5941 -0.434035,0.88188 -0.423307,0.4535 -0.929995,0.67127 -1.516932,0.65452 -0.588194,-0.0192 -1.19029,-0.27161 -1.808184,-0.75982 -0.228708,-0.18128 -0.429613,-0.37153 -0.603992,-0.57256 -0.173739,-0.20042 -0.313997,-0.40384 -0.423296,-0.60905 z m 116.215847,1.85647 c -0.11562,-0.15615 -0.24262,-0.32067 -0.37087,-0.4858 -0.12952,-0.16752 -0.30009,-0.3847 -0.50922,-0.64854 l 0.1074,-0.10411 c 0.33991,0.19624 0.6577,0.27761 0.94896,0.25069 0.29061,-0.0269 0.57492,-0.1741 0.83775,-0.42838 0.24072,-0.23152 0.37654,-0.46845 0.39929,-0.70297 0.0228,-0.23454 -0.0682,-0.44154 -0.26662,-0.61624 -0.1453,-0.12803 -0.31779,-0.19503 -0.50985,-0.19503 -0.19333,0 -0.56103,0.0993 -1.09868,0.29494 -0.71834,0.26146 -1.25663,0.38291 -1.60222,0.36616 -0.34559,-0.0174 -0.67033,-0.15975 -0.96285,-0.41701 -0.42709,-0.37632 -0.62105,-0.81964 -0.57871,-1.31682 0.0417,-0.49658 0.32221,-0.99495 0.8289,-1.48435 0.21607,-0.2082 0.44542,-0.38768 0.67538,-0.52708 0.23061,-0.1394 0.47637,-0.25009 0.73287,-0.32367 0.0872,0.1753 0.1826,0.347 0.28116,0.50973 0.0986,0.16274 0.20786,0.32667 0.32284,0.48821 l -0.0752,0.0724 c -0.33296,-0.12564 -0.62863,-0.16752 -0.88072,-0.13163 -0.25082,0.0365 -0.49027,0.16333 -0.70445,0.37035 -0.21164,0.20401 -0.33484,0.42118 -0.35569,0.63717 -0.0215,0.21717 0.0525,0.40743 0.2205,0.5546 0.22554,0.19864 0.71265,0.16154 1.44743,-0.11187 0.12383,-0.0461 0.2287,-0.085 0.2963,-0.10829 0.71266,-0.25009 1.23389,-0.36256 1.55863,-0.33206 0.32474,0.0306 0.63622,0.17829 0.9281,0.43496 0.46246,0.40683 0.66653,0.88606 0.6122,1.42391 -0.0549,0.53846 -0.37086,1.08709 -0.93758,1.63332 -0.20785,0.20102 -0.43151,0.38291 -0.65832,0.53307 -0.22554,0.14957 -0.45742,0.27282 -0.68675,0.36435 z"
     id="path212"
     style="fill:#000066;fill-opacity:1;stroke:none" />
  <rect
     width="12.391304"
     height="149.93478"
     ry="6.195652"
     x="185.13031"
     y="6.0674782"
     id="rect3533"
     style="fill:#ffffff;fill-opacity:1;stroke:none" />
  <g
     id="text3535"
     style="font-size:140.48579407px;font-style:normal;font-weight:normal;line-height:125%;letter-spacing:0px;word-spacing:0px;fill:#ffffff;fill-opacity:1;stroke:none;font-family:Sans">
    <path
       d="m 292.96095,38.568546 0,38.482681 17.42353,0 c 6.44803,5.3e-5 11.43271,-1.669129 14.95406,-5.00755 3.52122,-3.338306 5.28187,-8.094331 5.28193,-14.268089 -6e-5,-6.127883 -1.76071,-10.861042 -5.28193,-14.199492 -3.52135,-3.338277 -8.50603,-5.007459 -14.95406,-5.00755 l -17.42353,0 m -13.85651,-11.387032 31.28004,0 c 11.47844,1.02e-4 20.14446,2.60677 25.9981,7.82001 5.89923,5.167698 8.84888,12.759046 8.84896,22.774064 -8e-5,10.106625 -2.94973,17.743703 -8.84896,22.911258 -5.85364,5.167652 -14.51966,7.751454 -25.9981,7.751413 l -17.42353,0 0,41.157951 -13.85651,0 0,-102.414696"
       id="path3080"
       style="font-variant:normal;font-stretch:normal;letter-spacing:-12.92469025px;fill:#ffffff;font-family:Saab;-inkscape-font-specification:Saab" />
    <path
       d="m 399.5315,81.578601 c 2.97245,1.00613 5.8535,3.155488 8.64317,6.448079 2.83525,3.292674 5.67057,7.820043 8.50597,13.58212 l 14.0623,27.98741 -14.88546,0 -13.10194,-26.27249 c -3.38416,-6.859628 -6.6768,-11.409863 -9.87791,-13.650722 -3.15549,-2.24078 -7.47708,-3.361189 -12.96475,-3.361233 l -15.09125,0 0,43.284445 -13.85651,0 0,-102.414696 31.28004,0 c 11.70709,1.02e-4 20.44172,2.446711 26.20389,7.339834 5.76204,4.893313 8.64309,12.27887 8.64317,22.156695 -8e-5,6.448145 -1.5092,11.798673 -4.52737,16.0516 -2.97259,4.25304 -7.31704,7.20269 -13.03335,8.848958 m -34.70987,-43.010055 0,36.356187 17.42353,0 c 6.67668,5.5e-5 11.70709,-1.531934 15.09125,-4.595971 3.42976,-3.109649 5.14468,-7.659884 5.14474,-13.650719 -6e-5,-5.990689 -1.71498,-10.495193 -5.14474,-13.513526 -3.38416,-3.063891 -8.41457,-4.59588 -15.09125,-4.595971 l -17.42353,0"
       id="path3082"
       style="font-variant:normal;font-stretch:normal;letter-spacing:-12.92469025px;fill:#ffffff;font-family:Saab;-inkscape-font-specification:Saab" />
    <path
       d="m 464.25814,40.832233 -18.79546,50.967259 37.65952,0 -18.86406,-50.967259 m -7.82001,-13.650719 15.70862,0 39.03146,102.414696 -14.40529,0 -9.32913,-26.27249 -46.1655,0 -9.32913,26.27249 -14.61108,0 39.10005,-102.414696"
       id="path3084"
       style="font-variant:normal;font-stretch:normal;letter-spacing:-12.92469025px;fill:#ffffff;font-family:Saab;-inkscape-font-specification:Saab" />
  </g>
  <g
     transform="matrix(0.96994734,0,0,1.0309838,5.6755885,-1.2612419)"
     id="text3539"
     style="font-size:106.87724304px;font-style:normal;font-weight:normal;line-height:125%;letter-spacing:0px;word-spacing:0px;fill:#ffffff;fill-opacity:1;stroke:none;font-family:Sans">
    <path
       d="m 274.61708,40.727026 0,10.280672 c -4.001,-1.913425 -7.77579,-3.339845 -11.3244,-4.279265 -3.5487,-0.93928 -6.97559,-1.408955 -10.28067,-1.409026 -5.74051,7.1e-5 -10.17633,1.113374 -13.30747,3.339914 -3.0964,2.226674 -4.64459,5.392631 -4.64457,9.49788 -2e-5,3.444341 1.02631,6.053646 3.07898,7.827923 2.08743,1.739587 6.01878,3.148612 11.79407,4.227079 l 6.36672,1.304653 c 7.86266,1.496047 13.65532,4.140142 17.37798,7.932296 3.75735,3.757436 5.63605,8.802092 5.63611,15.133984 -6e-5,7.549614 -2.53979,13.272684 -7.61918,17.169244 -5.04471,3.89657 -12.45514,5.84485 -22.2313,5.84485 -3.68785,0 -7.6192,-0.41749 -11.79407,-1.25247 -4.14012,-0.83498 -8.43677,-2.07005 -12.88998,-3.70521 l 0,-10.85472 c 4.27925,2.40057 8.47154,4.20969 12.57686,5.42736 4.10529,1.21768 8.14101,1.82652 12.10719,1.82651 6.01876,10e-6 10.66333,-1.18288 13.9337,-3.54866 3.27029,-2.36576 4.90545,-5.740458 4.9055,-10.124111 -5e-5,-3.82696 -1.18293,-6.818964 -3.54866,-8.976019 -2.33102,-2.156996 -6.1754,-3.774765 -11.53314,-4.853312 l -6.41889,-1.252468 c -7.86274,-1.565547 -13.55102,-4.018294 -17.06488,-7.358247 -3.51387,-3.339868 -5.27081,-7.984431 -5.2708,-13.933704 -1e-5,-6.888508 2.41795,-12.315862 7.25388,-16.282079 4.87069,-3.966071 11.5679,-5.949143 20.09167,-5.949222 3.65299,7.9e-5 7.3756,0.330591 11.16783,0.991537 3.79215,0.661102 7.67131,1.652638 11.63752,2.974611"
       id="path3087"
       style="font-variant:normal;font-stretch:normal;letter-spacing:-9.83270454px;fill:#ffffff;font-family:Saab;-inkscape-font-specification:Saab" />
  </g>
</svg>
